<?xml version="1.0" encoding="UTF-8"?>
<svg width="350px" height="406px" viewBox="0 0 350 406" version="1.1" xmlns="http://www.w3.org/2000/svg" xmlns:xlink="http://www.w3.org/1999/xlink">
    <!-- Generator: Sketch 55.2 (78181) - https://sketchapp.com -->
    <title>data-icon</title>
    <desc>Created with Sketch.</desc>
    <defs>
        <polygon id="path-1" points="0 0 349.999602 0 349.999602 405.68142 0 405.68142"></polygon>
    </defs>
    <g id="Page-1" stroke="none" stroke-width="1" fill="none" fill-rule="evenodd">
        <g id="data-icon">
            <path d="M75.8879545,125.14608 C79.7976136,125.14608 82.9675,121.988125 82.9675,118.082443 C82.9675,114.184716 79.7976136,111.018807 75.8879545,111.018807 C71.9782955,111.018807 68.8084091,114.184716 68.8084091,118.082443 C68.8084091,121.988125 71.9782955,125.14608 75.8879545,125.14608" id="Fill-1" fill="#005DFF" fill-rule="nonzero"></path>
            <path d="M189.158693,111.020795 C193.068352,111.020795 196.238239,107.862841 196.238239,103.957159 C196.238239,100.059432 193.068352,96.8935227 189.158693,96.8935227 C185.249034,96.8935227 182.079148,100.059432 182.079148,103.957159 C182.079148,107.862841 185.249034,111.020795 189.158693,111.020795" id="Fill-3" fill="#005DFF" fill-rule="nonzero"></path>
            <path d="M118.364034,96.8947159 C122.273693,96.8947159 125.44358,93.7367614 125.44358,89.8310795 C125.44358,85.9373295 122.273693,82.7674432 118.364034,82.7674432 C114.454375,82.7674432 111.284489,85.9373295 111.284489,89.8310795 C111.284489,93.7367614 114.454375,96.8947159 118.364034,96.8947159" id="Fill-5" fill="#005DFF" fill-rule="nonzero"></path>
            <path d="M58.1902841,248.743409 C54.280625,248.743409 51.1107386,251.909318 51.1107386,255.807045 C51.1107386,259.70875 54.280625,262.870682 58.1902841,262.870682 C62.0999432,262.870682 65.2698295,259.70875 65.2698295,255.807045 C65.2698295,251.909318 62.0999432,248.743409 58.1902841,248.743409" id="Fill-7" fill="#005DFF" fill-rule="nonzero"></path>
            <path d="M245.794261,139.271364 C241.884602,139.271364 238.714716,142.437273 238.714716,146.335 C238.714716,150.236705 241.884602,153.398636 245.794261,153.398636 C249.70392,153.398636 252.873807,150.236705 252.873807,146.335 C252.873807,142.437273 249.70392,139.271364 245.794261,139.271364" id="Fill-9" fill="#005DFF" fill-rule="nonzero"></path>
            <path d="M104.206932,224.023864 C108.116591,224.023864 111.286477,220.865909 111.286477,216.960227 C111.286477,213.0625 108.116591,209.896591 104.206932,209.896591 C100.297273,209.896591 97.1273864,213.0625 97.1273864,216.960227 C97.1273864,220.865909 100.297273,224.023864 104.206932,224.023864" id="Fill-11" fill="#005DFF" fill-rule="nonzero"></path>
            <path d="M302.429432,252.274432 C298.519773,252.274432 295.349886,255.440341 295.349886,259.338068 C295.349886,263.239773 298.519773,266.401705 302.429432,266.401705 C306.339091,266.401705 309.508977,263.239773 309.508977,259.338068 C309.508977,255.440341 306.339091,252.274432 302.429432,252.274432" id="Fill-13" fill="#005DFF" fill-rule="nonzero"></path>
            <path d="M174.999602,337.026932 C171.089943,337.026932 167.920057,340.192841 167.920057,344.090568 C167.920057,347.992273 171.089943,351.154205 174.999602,351.154205 C178.909261,351.154205 182.079148,347.992273 182.079148,344.090568 C182.079148,340.192841 178.909261,337.026932 174.999602,337.026932" id="Fill-15" fill="#005DFF" fill-rule="nonzero"></path>
            <path d="M259.951761,280.525795 C256.042102,280.525795 252.872216,283.691705 252.872216,287.589432 C252.872216,291.491136 256.042102,294.653068 259.951761,294.653068 C263.86142,294.653068 267.031307,291.491136 267.031307,287.589432 C267.031307,283.691705 263.86142,280.525795 259.951761,280.525795" id="Fill-17" fill="#005DFF" fill-rule="nonzero"></path>
            <path d="M259.951761,209.89858 C256.042102,209.89858 252.872216,213.064489 252.872216,216.962216 C252.872216,220.86392 256.042102,224.025852 259.951761,224.025852 C263.86142,224.025852 267.031307,220.86392 267.031307,216.962216 C267.031307,213.064489 263.86142,209.89858 259.951761,209.89858" id="Fill-19" fill="#005DFF" fill-rule="nonzero"></path>
            <g id="Group-23">
                <g id="Fill-21-Clipped">
                    <mask id="mask-2" fill="white">
                        <use xlink:href="#path-1"></use>
                    </mask>
                    <g id="path-1"></g>
                    <path d="M339.80983,298.796193 L174.999602,394.708125 L10.1933523,298.796193 L10.1933523,106.880852 L174.999602,10.9689205 L339.80983,106.880852 L339.80983,298.796193 Z M347.470057,99.570625 L177.564943,0.691647727 C175.989943,-0.231079545 174.009261,-0.231079545 172.434261,0.691647727 L2.52914773,99.570625 C0.962102273,100.48142 -0.000397727273,102.151875 -0.000397727273,103.957557 L-0.000397727273,301.715511 C-0.000397727273,303.529148 0.962102273,305.195625 2.52914773,306.10642 L172.434261,404.985398 C173.221761,405.446761 174.116648,405.68142 174.999602,405.68142 C175.886534,405.68142 176.777443,405.446761 177.564943,404.985398 L347.470057,306.10642 C349.037102,305.195625 349.999602,303.529148 349.999602,301.715511 L349.999602,103.957557 C349.999602,102.151875 349.037102,100.48142 347.470057,99.570625 L347.470057,99.570625 Z" id="Fill-21" fill="#005DFF" fill-rule="nonzero" mask="url(#mask-2)"></path>
                </g>
            </g>
            <path d="M231.634773,94.9223864 C236.634205,94.9223864 240.698977,98.9792045 240.698977,103.95875 C240.698977,108.94625 236.634205,112.999091 231.634773,112.999091 C226.635341,112.999091 222.570568,108.94625 222.570568,103.95875 C222.570568,98.9792045 226.635341,94.9223864 231.634773,94.9223864 L231.634773,94.9223864 Z M217.475682,236.175227 C222.475114,236.175227 226.539886,240.232045 226.539886,245.211591 C226.539886,250.199091 222.475114,254.255909 217.475682,254.255909 C212.480227,254.255909 208.411477,250.199091 208.411477,245.211591 C208.411477,240.232045 212.480227,236.175227 217.475682,236.175227 L217.475682,236.175227 Z M174.998409,217.732614 C166.773409,217.732614 160.071705,211.050795 160.071705,202.841705 C160.071705,194.628636 166.773409,187.950795 174.998409,187.950795 C183.227386,187.950795 189.925114,194.628636 189.925114,202.841705 C189.925114,211.050795 183.227386,217.732614 174.998409,217.732614 L174.998409,217.732614 Z M288.271136,165.550795 C293.270568,165.550795 297.335341,169.603636 297.335341,174.583182 C297.335341,179.570682 293.270568,183.6275 288.271136,183.6275 C283.271705,183.6275 279.206932,179.570682 279.206932,174.583182 C279.206932,169.603636 283.271705,165.550795 288.271136,165.550795 L288.271136,165.550795 Z M118.366023,310.757045 C113.366591,310.757045 109.301818,306.700227 109.301818,301.712727 C109.301818,296.733182 113.366591,292.680341 118.366023,292.680341 C123.361477,292.680341 127.430227,296.733182 127.430227,301.712727 C127.430227,306.700227 123.361477,310.757045 118.366023,310.757045 L118.366023,310.757045 Z M61.7296591,183.6275 C56.7302273,183.6275 52.6654545,179.570682 52.6654545,174.583182 C52.6654545,169.603636 56.7302273,165.550795 61.7296591,165.550795 C66.7290909,165.550795 70.7938636,169.603636 70.7938636,174.583182 C70.7938636,179.570682 66.7290909,183.6275 61.7296591,183.6275 L61.7296591,183.6275 Z M123.460909,132.209318 C123.460909,127.229773 127.525682,123.172955 132.525114,123.172955 C137.520568,123.172955 141.585341,127.229773 141.585341,132.209318 C141.585341,137.196818 137.520568,141.249659 132.525114,141.249659 C127.525682,141.249659 123.460909,137.196818 123.460909,132.209318 L123.460909,132.209318 Z M182.718295,179.117273 C180.272273,178.321818 177.710909,177.784886 174.998409,177.784886 C172.102955,177.784886 169.362614,178.369545 166.769432,179.276364 L146.421705,145.437727 C149.718864,141.989432 151.779091,137.347955 151.779091,132.209318 C151.779091,121.621818 143.140455,112.999091 132.525114,112.999091 C121.905795,112.999091 113.271136,121.621818 113.271136,132.209318 C113.271136,142.800795 121.905795,151.423523 132.525114,151.423523 C134.314886,151.423523 136.017159,151.101364 137.66375,150.64 L158.023409,184.490568 C155.724545,186.614432 153.85125,189.136023 152.471136,191.979773 L80.9359091,174.137727 C80.6893182,163.757045 72.1938636,155.376932 61.7296591,155.376932 C51.1103409,155.376932 42.4756818,163.999659 42.4756818,174.583182 C42.4756818,185.178636 51.1103409,193.801364 61.7296591,193.801364 C68.9086364,193.801364 75.1052273,189.812159 78.4182955,183.993409 L149.985341,201.843409 C149.969432,202.181477 149.881932,202.499659 149.881932,202.841705 C149.881932,210.299091 153.230795,216.925227 158.429091,221.526932 L123.114886,283.166705 C121.587614,282.780909 120.016591,282.506477 118.366023,282.506477 C107.746705,282.506477 99.1120455,291.125227 99.1120455,301.712727 C99.1120455,312.308182 107.746705,320.930909 118.366023,320.930909 C128.981364,320.930909 137.62,312.308182 137.62,301.712727 C137.62,296.430909 135.468295,291.642273 131.992159,288.166136 L167.2825,226.562159 C169.728523,227.361591 172.289886,227.898523 174.998409,227.898523 C180.085341,227.898523 184.806364,226.363295 188.76375,223.762159 L200.810909,235.7775 C199.212045,238.5775 198.221705,241.77125 198.221705,245.211591 C198.221705,255.807045 206.856364,264.429773 217.475682,264.429773 C228.095,264.429773 236.729659,255.807045 236.729659,245.211591 C236.729659,234.624091 228.095,226.005341 217.475682,226.005341 C214.019432,226.005341 210.821705,226.991705 208.01375,228.590568 L195.970568,216.567273 C198.575682,212.621818 200.114886,207.912727 200.114886,202.841705 C200.114886,202.499659 200.027386,202.181477 200.015455,201.843409 L271.5825,183.993409 C274.895568,189.812159 281.092159,193.801364 288.271136,193.801364 C298.890455,193.801364 307.525114,185.178636 307.525114,174.583182 C307.525114,163.999659 298.890455,155.376932 288.271136,155.376932 C277.802955,155.376932 269.3075,163.757045 269.060909,174.137727 L197.529659,191.979773 C196.07,188.980909 194.045568,186.343977 191.571705,184.156477 L226.881932,122.512727 C228.409205,122.898523 229.984205,123.172955 231.634773,123.172955 C242.254091,123.172955 250.88875,114.550227 250.88875,103.95875 C250.88875,93.37125 242.254091,84.7485227 231.634773,84.7485227 C221.015455,84.7485227 212.380795,93.37125 212.380795,103.95875 C212.380795,109.240568 214.5325,114.033182 218.004659,117.509318 L182.718295,179.117273 Z" id="Fill-24" fill="#005DFF" fill-rule="nonzero"></path>
        </g>
    </g>
</svg>