<?xml version="1.0" encoding="UTF-8"?>
<svg width="300px" height="300px" viewBox="0 0 300 300" version="1.1" xmlns="http://www.w3.org/2000/svg" xmlns:xlink="http://www.w3.org/1999/xlink">
    <!-- Generator: Sketch 60 (88103) - https://sketch.com -->
    <title>300x300 - Data Copy</title>
    <desc>Created with Sketch.</desc>
    <g id="300x300---Data-Copy" stroke="none" stroke-width="1" fill="none" fill-rule="evenodd">
        <g id="Group-26" transform="translate(106.000000, 49.000000)" fill="#0062FF">
            <g id="Group-3" transform="translate(0.000000, 0.340650)">
                <path d="M3.34568889,76.1306 L44.5427259,98.2501 L85.739763,76.1306 L85.739763,25.5281 L44.5427259,3.4086 L3.34568889,25.5281 L3.34568889,76.1306 Z M44.5427259,100.74935 C44.3536889,100.74935 44.1613926,100.70385 43.9853926,100.6096 L1.61502222,77.8596 C1.23694815,77.65485 0.999022222,77.2616 0.999022222,76.82935 L0.999022222,24.82935 C0.999022222,24.3971 1.23694815,24.00385 1.61502222,23.79585 L43.9853926,1.04585 C44.3373926,0.86385 44.7513185,0.86385 45.1000593,1.04585 L87.4704296,23.79585 C87.8485037,24.00385 88.0864296,24.3971 88.0864296,24.82935 L88.0864296,76.82935 C88.0864296,77.2616 87.8485037,77.65485 87.4704296,77.8596 L45.1000593,100.6096 C44.9240593,100.70385 44.7350222,100.74935 44.5427259,100.74935 L44.5427259,100.74935 Z" id="Fill-1"></path>
            </g>
            <path d="M70.6174519,46.748375 C69.4669333,46.748375 68.5315259,45.815625 68.5315259,44.668375 C68.5315259,43.524375 69.4669333,42.591625 70.6174519,42.591625 C71.7679704,42.591625 72.7033778,43.524375 72.7033778,44.668375 C72.7033778,45.815625 71.7679704,46.748375 70.6174519,46.748375 M54.3211556,58.841625 C55.4716741,58.841625 56.4070815,59.774375 56.4070815,60.918375 C56.4070815,62.065625 55.4716741,62.998375 54.3211556,62.998375 C53.170637,62.998375 52.2352296,62.065625 52.2352296,60.918375 C52.2352296,59.774375 53.170637,58.841625 54.3211556,58.841625 M40.824563,51.168375 C40.824563,49.124125 42.496563,47.463375 44.5433778,47.463375 C46.5934519,47.463375 48.2654519,49.124125 48.2654519,51.168375 C48.2654519,53.212625 46.5934519,54.873375 44.5433778,54.873375 C42.496563,54.873375 40.824563,53.212625 40.824563,51.168375 M31.5063407,75.998375 C30.3558222,75.998375 29.4204148,75.065625 29.4204148,73.918375 C29.4204148,72.774375 30.3558222,71.841625 31.5063407,71.841625 C32.6568593,71.841625 33.5922667,72.774375 33.5922667,73.918375 C33.5922667,75.065625 32.6568593,75.998375 31.5063407,75.998375 M18.4693037,46.748375 C17.3187852,46.748375 16.3833778,45.815625 16.3833778,44.668375 C16.3833778,43.524375 17.3187852,42.591625 18.4693037,42.591625 C19.6198222,42.591625 20.5552296,43.524375 20.5552296,44.668375 C20.5552296,45.815625 19.6198222,46.748375 18.4693037,46.748375 M32.6796741,34.918375 C32.6796741,33.774375 33.6150815,32.841625 34.7656,32.841625 C35.9161185,32.841625 36.8515259,33.774375 36.8515259,34.918375 C36.8515259,36.065625 35.9161185,36.998375 34.7656,36.998375 C33.6150815,36.998375 32.6796741,36.065625 32.6796741,34.918375 M57.5804148,26.341625 C58.7309333,26.341625 59.6663407,27.274375 59.6663407,28.418375 C59.6663407,29.565625 58.7309333,30.498375 57.5804148,30.498375 C56.4298963,30.498375 55.4944889,29.565625 55.4944889,28.418375 C55.4944889,27.274375 56.4298963,26.341625 57.5804148,26.341625 M75.0500444,44.668375 C75.0500444,42.230875 73.0618963,40.248375 70.6174519,40.248375 C68.2088593,40.248375 66.2533037,42.175625 66.1978963,44.564375 L50.0124148,48.594375 C49.650637,47.833875 49.1324148,47.167625 48.5001185,46.621625 L56.488563,32.688875 C56.8373037,32.776625 57.1990815,32.841625 57.5804148,32.841625 C60.0248593,32.841625 62.0130074,30.855875 62.0130074,28.418375 C62.0130074,25.980875 60.0248593,23.998375 57.5804148,23.998375 C55.1359704,23.998375 53.1478222,25.980875 53.1478222,28.418375 C53.1478222,29.633875 53.6432296,30.738875 54.4450074,31.538375 L46.4630815,45.461375 C45.8568593,45.256625 45.2213037,45.120125 44.5433778,45.120125 C43.8230815,45.120125 43.1418963,45.269625 42.5030815,45.497125 L37.9661926,37.963625 C38.7256,37.170625 39.1981926,36.101375 39.1981926,34.918375 C39.1981926,32.480875 37.2100444,30.498375 34.7656,30.498375 C32.3211556,30.498375 30.3330074,32.480875 30.3330074,34.918375 C30.3330074,37.355875 32.3211556,39.341625 34.7656,39.341625 C35.1762667,39.341625 35.570637,39.263625 35.9487111,39.159625 L40.4888593,46.702875 C39.9021926,47.232625 39.4198222,47.876125 39.0776,48.594375 L22.8888593,44.561125 C22.8301926,42.175625 20.8778963,40.248375 18.4693037,40.248375 C16.0248593,40.248375 14.0367111,42.230875 14.0367111,44.668375 C14.0367111,47.105875 16.0248593,49.091625 18.4693037,49.091625 C20.1217481,49.091625 21.5493037,48.171875 22.3119704,46.829625 L38.5104889,50.872625 C38.5039704,50.973375 38.4811556,51.067625 38.4811556,51.168375 C38.4811556,52.988375 39.3090074,54.603625 40.5898963,55.715125 L32.6014519,69.651125 C32.2494519,69.563375 31.8876741,69.498375 31.5063407,69.498375 C29.0618963,69.498375 27.0737481,71.480875 27.0737481,73.918375 C27.0737481,76.355875 29.0618963,78.341625 31.5063407,78.341625 C33.9507852,78.341625 35.9389333,76.355875 35.9389333,73.918375 C35.9389333,72.702875 35.4435259,71.601125 34.6450074,70.801625 L42.6269333,56.875375 C43.2331556,57.080125 43.8687111,57.216625 44.5433778,57.216625 C45.7949333,57.216625 46.9552296,56.836375 47.9199704,56.186375 L50.4850074,58.744125 C50.1167111,59.390875 49.888563,60.125375 49.888563,60.918375 C49.888563,63.355875 51.8767111,65.341625 54.3211556,65.341625 C56.7656,65.341625 58.7537481,63.355875 58.7537481,60.918375 C58.7537481,58.480875 56.7656,56.498375 54.3211556,56.498375 C53.5258963,56.498375 52.7893037,56.722625 52.1472296,57.093125 L49.5789333,54.535375 C50.2307852,53.573375 50.6088593,52.413125 50.6088593,51.168375 C50.6088593,51.067625 50.5860444,50.970125 50.5795259,50.872625 L66.7780444,46.832875 C67.5374519,48.171875 68.9650074,49.091625 70.6174519,49.091625 C73.0618963,49.091625 75.0500444,47.105875 75.0500444,44.668375" id="Fill-4"></path>
            <path d="M21.7301926,33.291425 C22.6297481,33.291425 23.3598222,32.563425 23.3598222,31.666425 C23.3598222,30.772675 22.6297481,30.041425 21.7301926,30.041425 C20.830637,30.041425 20.100563,30.772675 20.100563,31.666425 C20.100563,32.563425 20.830637,33.291425 21.7301926,33.291425" id="Fill-6"></path>
            <path d="M47.8042667,30.041425 C48.7038222,30.041425 49.4338963,29.313425 49.4338963,28.416425 C49.4338963,27.522675 48.7038222,26.791425 47.8042667,26.791425 C46.9047111,26.791425 46.174637,27.522675 46.174637,28.416425 C46.174637,29.313425 46.9047111,30.041425 47.8042667,30.041425" id="Fill-8"></path>
            <path d="M31.5079704,26.791425 C32.4075259,26.791425 33.1376,26.063425 33.1376,25.166425 C33.1376,24.272675 32.4075259,23.541425 31.5079704,23.541425 C30.6084148,23.541425 29.8783407,24.272675 29.8783407,25.166425 C29.8783407,26.063425 30.6084148,26.791425 31.5079704,26.791425" id="Fill-10"></path>
            <path d="M17.6561185,61.728925 C16.756563,61.728925 16.0264889,62.460175 16.0264889,63.353925 C16.0264889,64.250925 16.756563,64.978925 17.6561185,64.978925 C18.5556741,64.978925 19.2857481,64.250925 19.2857481,63.353925 C19.2857481,62.460175 18.5556741,61.728925 17.6561185,61.728925" id="Fill-12"></path>
            <path d="M60.8413037,36.541425 C59.9417481,36.541425 59.2116741,37.272675 59.2116741,38.166425 C59.2116741,39.063425 59.9417481,39.791425 60.8413037,39.791425 C61.7408593,39.791425 62.4709333,39.063425 62.4709333,38.166425 C62.4709333,37.272675 61.7408593,36.541425 60.8413037,36.541425" id="Fill-14"></path>
            <path d="M28.2487111,56.041425 C29.1482667,56.041425 29.8783407,55.313425 29.8783407,54.416425 C29.8783407,53.522675 29.1482667,52.791425 28.2487111,52.791425 C27.3491556,52.791425 26.6190815,53.522675 26.6190815,54.416425 C26.6190815,55.313425 27.3491556,56.041425 28.2487111,56.041425" id="Fill-16"></path>
            <path d="M73.8783407,62.541425 C72.9787852,62.541425 72.2487111,63.272675 72.2487111,64.166425 C72.2487111,65.063425 72.9787852,65.791425 73.8783407,65.791425 C74.7778963,65.791425 75.5079704,65.063425 75.5079704,64.166425 C75.5079704,63.272675 74.7778963,62.541425 73.8783407,62.541425" id="Fill-18"></path>
            <path d="M44.5450074,82.041425 C43.6454519,82.041425 42.9153778,82.772675 42.9153778,83.666425 C42.9153778,84.563425 43.6454519,85.291425 44.5450074,85.291425 C45.444563,85.291425 46.174637,84.563425 46.174637,83.666425 C46.174637,82.772675 45.444563,82.041425 44.5450074,82.041425" id="Fill-20"></path>
            <path d="M64.100563,69.041425 C63.2010074,69.041425 62.4709333,69.772675 62.4709333,70.666425 C62.4709333,71.563425 63.2010074,72.291425 64.100563,72.291425 C65.0001185,72.291425 65.7301926,71.563425 65.7301926,70.666425 C65.7301926,69.772675 65.0001185,69.041425 64.100563,69.041425" id="Fill-22"></path>
            <path d="M64.100563,52.791425 C63.2010074,52.791425 62.4709333,53.522675 62.4709333,54.416425 C62.4709333,55.313425 63.2010074,56.041425 64.100563,56.041425 C65.0001185,56.041425 65.7301926,55.313425 65.7301926,54.416425 C65.7301926,53.522675 65.0001185,52.791425 64.100563,52.791425" id="Fill-24"></path>
        </g>
    </g>
</svg>