<?xml version="1.0" encoding="UTF-8"?> <!-- Creator: CorelDRAW X6 --> <svg xmlns="http://www.w3.org/2000/svg" xmlns:xlink="http://www.w3.org/1999/xlink" xml:space="preserve" width="254px" height="34px" style="shape-rendering:geometricPrecision; text-rendering:geometricPrecision; image-rendering:optimizeQuality; fill-rule:evenodd; clip-rule:evenodd" viewBox="0 0 446078 59715"> <defs> <style type="text/css"> <![CDATA[ .fil0 {fill:black} .fil1 {fill:#F12428} .fil2 {fill:#FEFEFE;fill-rule:nonzero} ]]> </style> </defs> <g id="Слой_x0020_1"> <metadata id="CorelCorpID_0Corel-Layer"></metadata> <g id="_677257920"> <polygon class="fil0" points="0,0 191612,0 191612,59715 0,59715 "></polygon> <polygon class="fil1" points="446078,0 191612,0 191612,59715 446078,59715 "></polygon> <path class="fil2" d="M41612 29393c0,2886 -393,5348 -1188,7405 -795,2048 -1930,3715 -3415,5017 -1485,1294 -3293,2247 -5415,2852 -2123,605 -4656,912 -7591,912l-7905 0c-567,0 -1039,-157 -1424,-473 -385,-315 -576,-829 -576,-1542l0 -27414c0,-713 192,-1227 576,-1542 384,-315 856,-473 1424,-473l8490 0c2952,0 5459,332 7512,987 2061,655 3791,1625 5197,2911 1407,1293 2481,2886 3215,4776 734,1899 1100,4088 1100,6584zm-6970 224c0,-1493 -184,-2869 -550,-4154 -367,-1277 -953,-2380 -1764,-3317 -812,-937 -1852,-1675 -3119,-2197 -1275,-522 -2935,-788 -5005,-788l-3398 0 0 21344 3503 0c1843,0 3398,-224 4655,-680 1258,-448 2315,-1136 3162,-2048 839,-912 1467,-2048 1887,-3408 419,-1360 629,-2944 629,-4751zm41534 4245c0,1924 -297,3648 -900,5166 -594,1526 -1467,2811 -2629,3864 -1162,1053 -2594,1857 -4297,2405 -1712,556 -3669,829 -5887,829 -2079,0 -3948,-249 -5599,-738 -1659,-497 -3057,-1244 -4201,-2247 -1145,-1003 -2018,-2255 -2621,-3756 -603,-1501 -908,-3251 -908,-5257l0 -19122c0,-157 52,-307 157,-439 96,-125 279,-232 541,-315 262,-83 611,-141 1040,-191 419,-50 969,-74 1633,-74 638,0 1179,25 1599,74 428,50 769,108 1022,191 253,83 436,191 550,315 114,133 166,282 166,439l0 18574c0,1252 166,2330 489,3251 323,912 786,1675 1397,2272 603,597 1328,1053 2175,1352 847,298 1791,448 2830,448 1057,0 2009,-157 2839,-464 839,-307 1546,-754 2131,-1343 576,-597 1031,-1327 1345,-2189 315,-871 471,-1857 471,-2961l0 -18939c0,-157 53,-307 157,-439 96,-125 279,-232 533,-315 253,-83 603,-141 1039,-191 436,-50 978,-74 1625,-74 646,0 1179,25 1599,74 419,50 760,108 1013,191 253,83 437,191 533,315 105,133 157,282 157,439l0 18856zm27453 9047c0,481 -18,895 -61,1227 -43,332 -113,605 -192,821 -88,224 -192,381 -323,473 -131,99 -279,149 -445,149l-15173 0c-559,0 -1031,-157 -1415,-473 -384,-315 -576,-829 -576,-1542l0 -28558c0,-157 52,-307 166,-439 114,-125 297,-232 550,-315 253,-83 603,-141 1040,-191 436,-50 978,-74 1625,-74 664,0 1214,25 1642,74 419,50 769,108 1022,191 253,83 436,191 550,315 114,133 166,282 166,439l0 25299 10403 0c166,0 323,42 445,133 131,91 236,232 323,440 87,199 148,464 192,804 44,332 61,738 61,1227zm24204 0c0,481 -18,895 -61,1227 -44,332 -113,605 -192,821 -87,224 -192,381 -323,473 -131,99 -279,149 -445,149l-15173 0c-559,0 -1031,-157 -1415,-473 -385,-315 -577,-829 -577,-1542l0 -28558c0,-157 52,-307 166,-439 114,-125 297,-232 550,-315 253,-83 603,-141 1040,-191 437,-50 978,-74 1625,-74 664,0 1214,25 1642,74 419,50 769,108 1022,191 253,83 437,191 550,315 114,133 166,282 166,439l0 25299 10403 0c166,0 323,42 445,133 131,91 236,232 323,440 87,199 148,464 192,804 44,332 61,738 61,1227zm25619 157c0,473 -17,862 -61,1186 -44,315 -105,572 -192,763 -87,199 -192,340 -323,431 -122,91 -271,133 -419,133l-16614 0c-559,0 -1031,-157 -1415,-473 -385,-315 -576,-829 -576,-1542l0 -27414c0,-713 192,-1227 576,-1542 384,-315 856,-473 1415,-473l16535 0c148,0 288,42 410,125 114,83 218,224 306,423 79,207 148,464 192,779 44,323 61,722 61,1211 0,456 -17,838 -61,1161 -44,315 -105,572 -192,763 -88,199 -192,340 -306,431 -122,91 -262,133 -410,133l-11818 0 0 7662 9958 0c157,0 297,41 419,133 131,91 236,224 323,415 88,182 148,431 192,754 44,315 61,697 61,1144 0,473 -17,863 -61,1169 -44,307 -105,556 -192,738 -87,191 -192,323 -323,398 -122,83 -262,125 -419,125l-9958 0 0 8856 11897 0c157,0 297,42 419,133 131,91 236,232 323,431 87,191 148,448 192,763 44,323 61,713 61,1186zm27157 -6924c0,1659 -323,3101 -970,4354 -655,1244 -1529,2280 -2638,3118 -1118,829 -2411,1459 -3896,1882 -1485,423 -3075,630 -4769,630 -1144,0 -2201,-91 -3188,-274 -978,-182 -1843,-398 -2594,-655 -751,-249 -1380,-514 -1887,-796 -507,-282 -865,-531 -1092,-738 -218,-216 -376,-522 -472,-921 -96,-398 -140,-962 -140,-1708 0,-506 17,-920 52,-1260 35,-340 87,-613 166,-829 79,-207 183,-357 306,-448 131,-91 279,-133 454,-133 236,0 576,133 1013,406 437,266 996,564 1677,887 681,323 1502,622 2454,887 944,274 2044,406 3293,406 821,0 1554,-91 2201,-274 655,-191 1205,-448 1660,-788 454,-340 795,-754 1039,-1252 236,-498 358,-1053 358,-1667 0,-713 -201,-1327 -612,-1833 -411,-514 -943,-962 -1607,-1360 -655,-398 -1407,-771 -2245,-1119 -830,-348 -1695,-713 -2586,-1103 -891,-390 -1755,-829 -2585,-1327 -839,-489 -1590,-1078 -2245,-1766 -664,-688 -1197,-1501 -1607,-2446 -411,-937 -611,-2065 -611,-3375 0,-1501 297,-2828 882,-3972 585,-1136 1380,-2081 2376,-2836 1004,-755 2175,-1319 3529,-1692 1354,-373 2795,-556 4315,-556 778,0 1563,58 2350,174 786,108 1520,265 2201,456 682,199 1284,415 1817,655 524,249 874,448 1048,613 166,158 280,299 341,406 61,116 114,265 157,456 44,182 70,415 87,705 18,282 26,630 26,1053 0,464 -9,863 -35,1186 -27,323 -70,589 -131,804 -61,207 -148,365 -253,456 -114,99 -262,149 -454,149 -184,0 -481,-116 -891,-340 -411,-224 -917,-473 -1511,-746 -603,-265 -1293,-506 -2079,-721 -786,-224 -1642,-332 -2585,-332 -734,0 -1371,83 -1922,257 -541,166 -996,406 -1362,705 -367,298 -646,655 -821,1078 -183,423 -270,871 -270,1335 0,697 201,1302 603,1808 402,514 944,970 1616,1368 673,389 1441,763 2297,1111 847,348 1721,721 2612,1103 891,390 1764,829 2612,1327 856,498 1616,1086 2288,1774 664,688 1206,1493 1616,2430 411,929 611,2023 611,3283zm43587 8616c0,174 -35,323 -105,448 -70,124 -227,224 -481,307 -262,75 -629,133 -1127,166 -498,33 -1170,50 -2018,50 -716,0 -1284,-17 -1712,-50 -428,-33 -769,-91 -1013,-182 -244,-91 -419,-199 -524,-340 -96,-141 -183,-307 -253,-498l-2988 -7040c-358,-796 -707,-1509 -1048,-2123 -340,-622 -725,-1136 -1144,-1551 -419,-415 -909,-721 -1459,-937 -541,-207 -1179,-315 -1895,-315l-2105 0 0 12015c0,157 -52,307 -166,431 -114,133 -297,240 -550,323 -253,75 -594,141 -1022,191 -419,50 -969,75 -1624,75 -647,0 -1188,-25 -1625,-75 -437,-50 -777,-116 -1031,-191 -253,-83 -437,-191 -533,-315 -105,-133 -157,-282 -157,-439l0 -28558c0,-713 192,-1227 576,-1542 384,-315 856,-473 1415,-473l8578 0c865,0 1590,17 2149,50 559,33 1074,75 1537,116 1328,182 2524,489 3590,929 1066,431 1974,1003 2717,1708 742,705 1310,1534 1703,2496 393,962 585,2065 585,3317 0,1045 -140,2007 -419,2869 -288,871 -699,1642 -1249,2322 -542,680 -1214,1269 -2018,1766 -803,506 -1721,904 -2743,1219 498,224 961,498 1397,821 437,323 847,722 1232,1186 385,464 751,987 1092,1584 340,589 672,1260 995,2007l2804 6211c253,613 428,1061 507,1352 87,282 131,506 131,672zm-8700 -21352c0,-1037 -245,-1916 -743,-2620 -498,-713 -1310,-1219 -2437,-1509 -341,-83 -725,-141 -1162,-191 -436,-50 -1039,-75 -1808,-75l-3022 0 0 8906 3433 0c961,0 1790,-108 2506,-332 725,-216 1319,-522 1800,-921 480,-390 838,-871 1074,-1418 236,-547 358,-1161 358,-1841zm35271 19660c0,473 -17,862 -61,1186 -44,315 -105,572 -192,763 -87,199 -192,340 -323,431 -122,91 -271,133 -419,133l-16614 0c-559,0 -1031,-157 -1415,-473 -385,-315 -576,-829 -576,-1542l0 -27414c0,-713 192,-1227 576,-1542 384,-315 856,-473 1415,-473l16535 0c148,0 288,42 410,125 114,83 218,224 306,423 78,207 148,464 192,779 44,323 61,722 61,1211 0,456 -17,838 -61,1161 -44,315 -105,572 -192,763 -88,199 -192,340 -306,431 -122,91 -262,133 -410,133l-11818 0 0 7662 9958 0c157,0 297,41 419,133 131,91 236,224 323,415 88,182 148,431 192,754 44,315 61,697 61,1144 0,473 -17,863 -61,1169 -44,307 -105,556 -192,738 -87,191 -192,323 -323,398 -122,83 -262,125 -419,125l-9958 0 0 8856 11897 0c157,0 297,42 419,133 131,91 236,232 323,431 87,191 148,448 192,763 44,323 61,713 61,1186zm27157 -6924c0,1659 -323,3101 -970,4354 -655,1244 -1529,2280 -2638,3118 -1118,829 -2411,1459 -3896,1882 -1485,423 -3075,630 -4769,630 -1144,0 -2201,-91 -3188,-274 -978,-182 -1843,-398 -2594,-655 -751,-249 -1380,-514 -1887,-796 -507,-282 -865,-531 -1092,-738 -218,-216 -376,-522 -472,-921 -96,-398 -140,-962 -140,-1708 0,-506 17,-920 52,-1260 35,-340 87,-613 166,-829 79,-207 183,-357 306,-448 131,-91 279,-133 454,-133 236,0 576,133 1013,406 437,266 996,564 1677,887 681,323 1502,622 2454,887 944,274 2044,406 3293,406 821,0 1554,-91 2201,-274 655,-191 1205,-448 1660,-788 454,-340 795,-754 1039,-1252 236,-498 358,-1053 358,-1667 0,-713 -201,-1327 -612,-1833 -411,-514 -943,-962 -1607,-1360 -655,-398 -1407,-771 -2245,-1119 -830,-348 -1695,-713 -2586,-1103 -891,-390 -1755,-829 -2585,-1327 -839,-489 -1590,-1078 -2245,-1766 -664,-688 -1197,-1501 -1608,-2446 -410,-937 -611,-2065 -611,-3375 0,-1501 297,-2828 882,-3972 585,-1136 1380,-2081 2376,-2836 1004,-755 2175,-1319 3529,-1692 1354,-373 2795,-556 4315,-556 778,0 1563,58 2350,174 786,108 1520,265 2201,456 682,199 1284,415 1817,655 524,249 874,448 1048,613 166,158 280,299 340,406 61,116 114,265 157,456 44,182 70,415 87,705 18,282 27,630 27,1053 0,464 -9,863 -35,1186 -27,323 -70,589 -131,804 -61,207 -148,365 -253,456 -114,99 -262,149 -454,149 -184,0 -481,-116 -891,-340 -411,-224 -917,-473 -1511,-746 -603,-265 -1293,-506 -2079,-721 -786,-224 -1642,-332 -2585,-332 -734,0 -1371,83 -1922,257 -541,166 -996,406 -1362,705 -367,298 -646,655 -821,1078 -183,423 -270,871 -270,1335 0,697 201,1302 603,1808 402,514 944,970 1616,1368 673,389 1441,763 2297,1111 847,348 1721,721 2612,1103 891,390 1764,829 2612,1327 856,498 1616,1086 2288,1774 664,688 1206,1493 1616,2430 411,929 612,2023 612,3283zm26763 6924c0,473 -17,862 -61,1186 -44,315 -105,572 -192,763 -87,199 -192,340 -323,431 -123,91 -271,133 -419,133l-16614 0c-559,0 -1031,-157 -1415,-473 -385,-315 -577,-829 -577,-1542l0 -27414c0,-713 192,-1227 577,-1542 384,-315 856,-473 1415,-473l16535 0c148,0 288,42 411,125 114,83 218,224 306,423 79,207 148,464 192,779 44,323 61,722 61,1211 0,456 -17,838 -61,1161 -44,315 -105,572 -192,763 -87,199 -192,340 -306,431 -122,91 -262,133 -411,133l-11818 0 0 7662 9957 0c157,0 297,41 419,133 131,91 236,224 323,415 87,182 148,431 192,754 44,315 61,697 61,1144 0,473 -17,863 -61,1169 -44,307 -105,556 -192,738 -88,191 -192,323 -323,398 -122,83 -262,125 -419,125l-9957 0 0 8856 11897 0c157,0 297,42 419,133 131,91 236,232 323,431 87,191 148,448 192,763 44,323 61,713 61,1186zm34494 133c201,581 332,1045 384,1385 52,340 -17,597 -201,771 -192,166 -524,274 -1005,315 -472,42 -1135,58 -1965,58 -874,0 -1555,-8 -2035,-33 -489,-25 -856,-75 -1118,-149 -253,-75 -428,-174 -532,-307 -105,-125 -192,-299 -253,-506l-2175 -6319 -12491 0 -2088 6144c-70,232 -157,423 -271,572 -105,157 -288,274 -533,365 -244,91 -594,149 -1048,182 -454,33 -1048,50 -1782,50 -786,0 -1398,-25 -1843,-75 -445,-50 -751,-166 -917,-348 -175,-191 -236,-456 -184,-796 53,-340 184,-788 385,-1360l10202 -27903c96,-274 218,-497 358,-663 131,-174 349,-298 646,-389 306,-91 716,-149 1249,-174 524,-25 1223,-33 2096,-33 1005,0 1808,8 2402,33 603,25 1066,83 1397,174 332,91 568,224 716,398 140,182 271,423 367,730l10237 27878zm-15199 -23085l-26 0 -4612 13375 9294 0 -4656 -13375zm46460 24644c0,174 -35,323 -105,448 -70,124 -227,224 -480,307 -262,75 -629,133 -1127,166 -498,33 -1170,50 -2018,50 -716,0 -1284,-17 -1712,-50 -428,-33 -769,-91 -1013,-182 -244,-91 -419,-199 -524,-340 -96,-141 -183,-307 -253,-498l-2987 -7040c-358,-796 -707,-1509 -1048,-2123 -340,-622 -725,-1136 -1144,-1551 -419,-415 -909,-721 -1459,-937 -541,-207 -1179,-315 -1895,-315l-2105 0 0 12015c0,157 -52,307 -166,431 -114,133 -297,240 -550,323 -254,75 -594,141 -1022,191 -419,50 -969,75 -1624,75 -647,0 -1188,-25 -1625,-75 -437,-50 -778,-116 -1031,-191 -253,-83 -437,-191 -533,-315 -105,-133 -157,-282 -157,-439l0 -28558c0,-713 192,-1227 577,-1542 384,-315 856,-473 1415,-473l8578 0c865,0 1590,17 2149,50 559,33 1074,75 1537,116 1328,182 2524,489 3590,929 1066,431 1974,1003 2716,1708 743,705 1310,1534 1704,2496 393,962 585,2065 585,3317 0,1045 -140,2007 -419,2869 -288,871 -699,1642 -1249,2322 -541,680 -1214,1269 -2018,1766 -804,506 -1721,904 -2743,1219 498,224 961,498 1398,821 437,323 847,722 1232,1186 384,464 751,987 1092,1584 340,589 672,1260 995,2007l2804 6211c253,613 428,1061 507,1352 87,282 131,506 131,672zm-8700 -21352c0,-1037 -245,-1916 -742,-2620 -498,-713 -1311,-1219 -2437,-1509 -341,-83 -725,-141 -1162,-191 -437,-50 -1040,-75 -1808,-75l-3022 0 0 8906 3433 0c961,0 1791,-108 2507,-332 725,-216 1319,-522 1800,-921 480,-390 839,-871 1074,-1418 236,-547 358,-1161 358,-1841zm38188 17421c0,406 -8,755 -35,1036 -26,282 -70,531 -122,730 -44,207 -114,381 -201,530 -87,141 -218,307 -411,489 -183,182 -550,423 -1083,713 -542,282 -1197,564 -1974,829 -778,257 -1660,481 -2656,655 -996,174 -2079,266 -3241,266 -2262,0 -4306,-332 -6132,-995 -1826,-663 -3380,-1658 -4656,-2977 -1284,-1319 -2262,-2961 -2943,-4942 -682,-1973 -1022,-4270 -1022,-6891 0,-2670 376,-5042 1127,-7115 751,-2073 1800,-3814 3144,-5224 1345,-1409 2961,-2471 4848,-3201 1878,-730 3957,-1095 6228,-1095 917,0 1800,75 2656,224 856,141 1642,332 2367,572 725,232 1372,506 1957,812 577,315 987,581 1214,796 227,224 384,406 472,547 87,149 157,332 201,556 52,232 96,498 122,804 26,307 35,680 35,1136 0,481 -17,896 -52,1236 -35,340 -96,613 -175,821 -87,207 -192,365 -306,456 -122,99 -262,149 -411,149 -253,0 -576,-141 -970,-423 -393,-282 -899,-597 -1520,-945 -620,-348 -1362,-663 -2227,-945 -856,-282 -1878,-423 -3075,-423 -1310,0 -2481,257 -3511,763 -1031,514 -1904,1235 -2629,2181 -725,954 -1275,2098 -1651,3441 -376,1335 -559,2853 -559,4536 0,1841 201,3441 603,4793 402,1343 969,2463 1712,3334 734,871 1633,1526 2681,1949 1049,431 2228,647 3538,647 1188,0 2219,-133 3092,-398 865,-266 1607,-564 2227,-879 629,-323 1135,-614 1537,-871 402,-257 707,-390 935,-390 166,0 306,33 402,99 105,66 192,191 262,390 61,191 114,464 148,813 35,356 52,821 52,1409zm32721 3881c0,157 -52,307 -166,439 -114,125 -297,232 -550,315 -253,75 -594,141 -1022,191 -419,50 -961,75 -1599,75 -664,0 -1214,-25 -1651,-75 -437,-50 -769,-116 -1022,-191 -244,-83 -419,-191 -532,-315 -114,-133 -166,-282 -166,-439l0 -12712 -12421 0 0 12712c0,157 -52,307 -157,439 -96,125 -279,232 -533,315 -253,75 -594,141 -1022,191 -419,50 -970,75 -1625,75 -647,0 -1188,-25 -1625,-75 -436,-50 -777,-116 -1031,-191 -253,-83 -437,-191 -550,-315 -114,-133 -166,-282 -166,-439l0 -29702c0,-157 52,-307 166,-439 113,-125 297,-232 550,-315 253,-83 594,-141 1031,-191 437,-50 978,-74 1625,-74 655,0 1205,25 1625,74 428,50 769,116 1022,191 253,83 437,191 533,315 105,133 157,282 157,439l0 11568 12421 0 0 -11568c0,-157 53,-307 166,-439 114,-125 288,-232 532,-315 253,-75 585,-141 1022,-191 437,-50 987,-74 1651,-74 638,0 1179,25 1599,74 428,50 769,108 1022,191 253,83 437,191 550,315 114,133 166,282 166,439l0 29702z"></path> </g> </g> </svg> 